<?xml version="1.0" encoding="UTF-8" standalone="no"?>
<!DOCTYPE svg PUBLIC "-//W3C//DTD SVG 1.1//EN"
 "http://www.w3.org/Graphics/SVG/1.1/DTD/svg11.dtd">
<!-- Generated by graphviz version 2.38.0 (20140413.2041)
 -->
<!-- Title: G Pages: 1 -->
<svg width="757pt" height="978pt"
 viewBox="0.00 0.00 756.76 978.00" xmlns="http://www.w3.org/2000/svg" xmlns:xlink="http://www.w3.org/1999/xlink">
<g id="graph0" class="graph" transform="scale(1 1) rotate(0) translate(4 974)">
<title>G</title>
<polygon fill="white" stroke="none" points="-4,4 -4,-974 752.755,-974 752.755,4 -4,4"/>
<g id="clust1" class="cluster"><title>cluster_Global</title>
<path fill="none" stroke="gray" d="M553.755,-8C553.755,-8 728.755,-8 728.755,-8 734.755,-8 740.755,-14 740.755,-20 740.755,-20 740.755,-950 740.755,-950 740.755,-956 734.755,-962 728.755,-962 728.755,-962 553.755,-962 553.755,-962 547.755,-962 541.755,-956 541.755,-950 541.755,-950 541.755,-20 541.755,-20 541.755,-14 547.755,-8 553.755,-8"/>
<text text-anchor="middle" x="641.255" y="-949.2" font-family="Times New Roman,serif" font-size="11.00" fill="gray">Global</text>
</g>
<g id="clust2" class="cluster"><title>cluster_\Acme</title>
<path fill="none" stroke="gray" d="M561.755,-16C561.755,-16 720.755,-16 720.755,-16 726.755,-16 732.755,-22 732.755,-28 732.755,-28 732.755,-922 732.755,-922 732.755,-928 726.755,-934 720.755,-934 720.755,-934 561.755,-934 561.755,-934 555.755,-934 549.755,-928 549.755,-922 549.755,-922 549.755,-28 549.755,-28 549.755,-22 555.755,-16 561.755,-16"/>
<text text-anchor="middle" x="641.255" y="-921.2" font-family="Times New Roman,serif" font-size="11.00" fill="gray">Acme</text>
</g>
<g id="clust3" class="cluster"><title>cluster_\Acme\GeekShareBundle</title>
<path fill="none" stroke="gray" d="M569.755,-24C569.755,-24 712.755,-24 712.755,-24 718.755,-24 724.755,-30 724.755,-36 724.755,-36 724.755,-894 724.755,-894 724.755,-900 718.755,-906 712.755,-906 712.755,-906 569.755,-906 569.755,-906 563.755,-906 557.755,-900 557.755,-894 557.755,-894 557.755,-36 557.755,-36 557.755,-30 563.755,-24 569.755,-24"/>
<text text-anchor="middle" x="641.255" y="-893.2" font-family="Times New Roman,serif" font-size="11.00" fill="gray">GeekShareBundle</text>
</g>
<g id="clust4" class="cluster"><title>cluster_\Acme\GeekShareBundle\Entity</title>
<path fill="none" stroke="gray" d="M615.755,-644C615.755,-644 666.755,-644 666.755,-644 672.755,-644 678.755,-650 678.755,-656 678.755,-656 678.755,-866 678.755,-866 678.755,-872 672.755,-878 666.755,-878 666.755,-878 615.755,-878 615.755,-878 609.755,-878 603.755,-872 603.755,-866 603.755,-866 603.755,-656 603.755,-656 603.755,-650 609.755,-644 615.755,-644"/>
<text text-anchor="middle" x="641.255" y="-865.2" font-family="Times New Roman,serif" font-size="11.00" fill="gray">Entity</text>
</g>
<g id="clust5" class="cluster"><title>cluster_\Acme\GeekShareBundle\Controller</title>
<path fill="none" stroke="gray" d="M593.755,-212C593.755,-212 688.755,-212 688.755,-212 694.755,-212 700.755,-218 700.755,-224 700.755,-224 700.755,-624 700.755,-624 700.755,-630 694.755,-636 688.755,-636 688.755,-636 593.755,-636 593.755,-636 587.755,-636 581.755,-630 581.755,-624 581.755,-624 581.755,-224 581.755,-224 581.755,-218 587.755,-212 593.755,-212"/>
<text text-anchor="middle" x="641.255" y="-623.2" font-family="Times New Roman,serif" font-size="11.00" fill="gray">Controller</text>
</g>
<g id="clust6" class="cluster"><title>cluster_\Acme\GeekShareBundle\Controller\Api</title>
<path fill="none" stroke="gray" d="M601.755,-428C601.755,-428 680.755,-428 680.755,-428 686.755,-428 692.755,-434 692.755,-440 692.755,-440 692.755,-596 692.755,-596 692.755,-602 686.755,-608 680.755,-608 680.755,-608 601.755,-608 601.755,-608 595.755,-608 589.755,-602 589.755,-596 589.755,-596 589.755,-440 589.755,-440 589.755,-434 595.755,-428 601.755,-428"/>
<text text-anchor="middle" x="641.255" y="-595.2" font-family="Times New Roman,serif" font-size="11.00" fill="gray">Api</text>
</g>
<g id="clust7" class="cluster"><title>cluster_\Acme\GeekShareBundle\DependencyInjection</title>
<path fill="none" stroke="gray" d="M577.755,-78C577.755,-78 704.755,-78 704.755,-78 710.755,-78 716.755,-84 716.755,-90 716.755,-90 716.755,-192 716.755,-192 716.755,-198 710.755,-204 704.755,-204 704.755,-204 577.755,-204 577.755,-204 571.755,-204 565.755,-198 565.755,-192 565.755,-192 565.755,-90 565.755,-90 565.755,-84 571.755,-78 577.755,-78"/>
<text text-anchor="middle" x="641.255" y="-191.2" font-family="Times New Roman,serif" font-size="11.00" fill="gray">DependencyInjection</text>
</g>
<!-- \\Acme\\GeekShareBundle\\Entity\\Page -->
<g id="node1" class="node"><title>\\Acme\\GeekShareBundle\\Entity\\Page</title>
<polygon fill="none" stroke="black" points="668.255,-850 614.255,-850 614.255,-814 668.255,-814 668.255,-850"/>
<text text-anchor="middle" x="641.255" y="-829.2" font-family="Times New Roman,serif" font-size="11.00">Page</text>
</g>
<!-- \\Acme\\GeekShareBundle\\Entity\\User -->
<g id="node2" class="node"><title>\\Acme\\GeekShareBundle\\Entity\\User</title>
<polygon fill="none" stroke="black" points="668.255,-796 614.255,-796 614.255,-760 668.255,-760 668.255,-796"/>
<text text-anchor="middle" x="641.255" y="-775.2" font-family="Times New Roman,serif" font-size="11.00">User</text>
</g>
<!-- \\Symfony\\Component\\Security\\Core\\User\\UserInterface -->
<g id="node16" class="node"><title>\\Symfony\\Component\\Security\\Core\\User\\UserInterface</title>
<ellipse fill="none" stroke="black" cx="250.878" cy="-778" rx="215.262" ry="18"/>
<text text-anchor="middle" x="250.878" y="-774.3" font-family="Times New Roman,serif" font-size="14.00" fill="gray">\Symfony\Component\Security\Core\User\UserInterface</text>
</g>
<!-- \\Acme\\GeekShareBundle\\Entity\\User&#45;&gt;\\Symfony\\Component\\Security\\Core\\User\\UserInterface -->
<g id="edge2" class="edge"><title>\\Acme\\GeekShareBundle\\Entity\\User&#45;&gt;\\Symfony\\Component\\Security\\Core\\User\\UserInterface</title>
<path fill="none" stroke="black" stroke-dasharray="1,5" d="M614.17,-778C584.167,-778 531.83,-778 476.111,-778"/>
<polygon fill="none" stroke="black" points="476.043,-774.5 466.043,-778 476.043,-781.5 476.043,-774.5"/>
</g>
<!-- \\Acme\\GeekShareBundle\\Entity\\Directory -->
<g id="node3" class="node"><title>\\Acme\\GeekShareBundle\\Entity\\Directory</title>
<polygon fill="none" stroke="black" points="670.755,-742 611.755,-742 611.755,-706 670.755,-706 670.755,-742"/>
<text text-anchor="middle" x="641.255" y="-721.2" font-family="Times New Roman,serif" font-size="11.00">Directory</text>
</g>
<!-- \\Acme\\GeekShareBundle\\Entity\\File -->
<g id="node4" class="node"><title>\\Acme\\GeekShareBundle\\Entity\\File</title>
<polygon fill="none" stroke="black" points="668.255,-688 614.255,-688 614.255,-652 668.255,-652 668.255,-688"/>
<text text-anchor="middle" x="641.255" y="-667.2" font-family="Times New Roman,serif" font-size="11.00">File</text>
</g>
<!-- \\Acme\\GeekShareBundle\\Controller\\Api\\FilesController -->
<g id="node5" class="node"><title>\\Acme\\GeekShareBundle\\Controller\\Api\\FilesController</title>
<polygon fill="none" stroke="black" points="681.255,-580 601.255,-580 601.255,-544 681.255,-544 681.255,-580"/>
<text text-anchor="middle" x="641.255" y="-559.2" font-family="Times New Roman,serif" font-size="11.00">FilesController</text>
</g>
<!-- \\Symfony\\Bundle\\FrameworkBundle\\Controller\\Controller -->
<g id="node15" class="node"><title>\\Symfony\\Bundle\\FrameworkBundle\\Controller\\Controller</title>
<ellipse fill="none" stroke="black" cx="250.878" cy="-400" rx="221.761" ry="18"/>
<text text-anchor="middle" x="250.878" y="-396.3" font-family="Times New Roman,serif" font-size="14.00" fill="gray">\Symfony\Bundle\FrameworkBundle\Controller\Controller</text>
</g>
<!-- \\Acme\\GeekShareBundle\\Controller\\Api\\FilesController&#45;&gt;\\Symfony\\Bundle\\FrameworkBundle\\Controller\\Controller -->
<g id="edge1" class="edge"><title>\\Acme\\GeekShareBundle\\Controller\\Api\\FilesController&#45;&gt;\\Symfony\\Bundle\\FrameworkBundle\\Controller\\Controller</title>
<path fill="none" stroke="black" d="M600.95,-552.843C582.72,-548.186 560.899,-542.025 541.755,-535 451.349,-501.826 350.367,-451.625 294.651,-422.704"/>
<polygon fill="none" stroke="black" points="295.931,-419.425 285.446,-417.906 292.696,-425.632 295.931,-419.425"/>
</g>
<!-- \\Acme\\GeekShareBundle\\Controller\\Api\\PagesController -->
<g id="node6" class="node"><title>\\Acme\\GeekShareBundle\\Controller\\Api\\PagesController</title>
<polygon fill="none" stroke="black" points="684.755,-526 597.755,-526 597.755,-490 684.755,-490 684.755,-526"/>
<text text-anchor="middle" x="641.255" y="-505.2" font-family="Times New Roman,serif" font-size="11.00">PagesController</text>
</g>
<!-- \\Acme\\GeekShareBundle\\Controller\\Api\\PagesController&#45;&gt;\\Symfony\\Bundle\\FrameworkBundle\\Controller\\Controller -->
<g id="edge4" class="edge"><title>\\Acme\\GeekShareBundle\\Controller\\Api\\PagesController&#45;&gt;\\Symfony\\Bundle\\FrameworkBundle\\Controller\\Controller</title>
<path fill="none" stroke="black" d="M597.577,-496.351C580.248,-491.608 560.041,-486.061 541.755,-481 467.251,-460.38 382.05,-436.541 323.397,-420.09"/>
<polygon fill="none" stroke="black" points="324.065,-416.643 313.491,-417.311 322.174,-423.382 324.065,-416.643"/>
</g>
<!-- \\Acme\\GeekShareBundle\\Controller\\Api\\UserController -->
<g id="node7" class="node"><title>\\Acme\\GeekShareBundle\\Controller\\Api\\UserController</title>
<polygon fill="none" stroke="black" points="682.255,-472 600.255,-472 600.255,-436 682.255,-436 682.255,-472"/>
<text text-anchor="middle" x="641.255" y="-451.2" font-family="Times New Roman,serif" font-size="11.00">UserController</text>
</g>
<!-- \\Acme\\GeekShareBundle\\Controller\\Api\\UserController&#45;&gt;\\Symfony\\Bundle\\FrameworkBundle\\Controller\\Controller -->
<g id="edge6" class="edge"><title>\\Acme\\GeekShareBundle\\Controller\\Api\\UserController&#45;&gt;\\Symfony\\Bundle\\FrameworkBundle\\Controller\\Controller</title>
<path fill="none" stroke="black" d="M600.155,-448.424C547.2,-441.062 451.579,-427.766 373.911,-416.967"/>
<polygon fill="none" stroke="black" points="373.95,-413.439 363.563,-415.529 372.986,-420.373 373.95,-413.439"/>
</g>
<!-- \\Acme\\GeekShareBundle\\Controller\\IndexController -->
<g id="node8" class="node"><title>\\Acme\\GeekShareBundle\\Controller\\IndexController</title>
<polygon fill="none" stroke="black" points="683.755,-418 598.755,-418 598.755,-382 683.755,-382 683.755,-418"/>
<text text-anchor="middle" x="641.255" y="-397.2" font-family="Times New Roman,serif" font-size="11.00">IndexController</text>
</g>
<!-- \\Acme\\GeekShareBundle\\Controller\\IndexController&#45;&gt;\\Symfony\\Bundle\\FrameworkBundle\\Controller\\Controller -->
<g id="edge5" class="edge"><title>\\Acme\\GeekShareBundle\\Controller\\IndexController&#45;&gt;\\Symfony\\Bundle\\FrameworkBundle\\Controller\\Controller</title>
<path fill="none" stroke="black" d="M598.692,-400C569.311,-400 527.337,-400 482.683,-400"/>
<polygon fill="none" stroke="black" points="482.51,-396.5 472.51,-400 482.51,-403.5 482.51,-396.5"/>
</g>
<!-- \\Acme\\GeekShareBundle\\Controller\\TemplateController -->
<g id="node9" class="node"><title>\\Acme\\GeekShareBundle\\Controller\\TemplateController</title>
<polygon fill="none" stroke="black" points="691.755,-364 590.755,-364 590.755,-328 691.755,-328 691.755,-364"/>
<text text-anchor="middle" x="641.255" y="-343.2" font-family="Times New Roman,serif" font-size="11.00">TemplateController</text>
</g>
<!-- \\Acme\\GeekShareBundle\\Controller\\TemplateController&#45;&gt;\\Symfony\\Bundle\\FrameworkBundle\\Controller\\Controller -->
<g id="edge9" class="edge"><title>\\Acme\\GeekShareBundle\\Controller\\TemplateController&#45;&gt;\\Symfony\\Bundle\\FrameworkBundle\\Controller\\Controller</title>
<path fill="none" stroke="black" d="M590.673,-352.894C536.279,-360.457 446.964,-372.875 373.692,-383.063"/>
<polygon fill="none" stroke="black" points="372.887,-379.641 363.464,-384.485 373.851,-386.574 372.887,-379.641"/>
</g>
<!-- \\Acme\\GeekShareBundle\\Controller\\AngularController -->
<g id="node10" class="node"><title>\\Acme\\GeekShareBundle\\Controller\\AngularController</title>
<polygon fill="none" stroke="black" points="688.755,-310 593.755,-310 593.755,-274 688.755,-274 688.755,-310"/>
<text text-anchor="middle" x="641.255" y="-289.2" font-family="Times New Roman,serif" font-size="11.00">AngularController</text>
</g>
<!-- \\Acme\\GeekShareBundle\\Controller\\AngularController&#45;&gt;\\Symfony\\Bundle\\FrameworkBundle\\Controller\\Controller -->
<g id="edge10" class="edge"><title>\\Acme\\GeekShareBundle\\Controller\\AngularController&#45;&gt;\\Symfony\\Bundle\\FrameworkBundle\\Controller\\Controller</title>
<path fill="none" stroke="black" d="M593.644,-304.726C577.237,-309.219 558.674,-314.318 541.755,-319 467.251,-339.62 382.05,-363.459 323.397,-379.91"/>
<polygon fill="none" stroke="black" points="322.174,-376.618 313.491,-382.689 324.065,-383.357 322.174,-376.618"/>
</g>
<!-- \\Acme\\GeekShareBundle\\Controller\\PhpInfoController -->
<g id="node11" class="node"><title>\\Acme\\GeekShareBundle\\Controller\\PhpInfoController</title>
<polygon fill="none" stroke="black" points="688.755,-256 593.755,-256 593.755,-220 688.755,-220 688.755,-256"/>
<text text-anchor="middle" x="641.255" y="-235.2" font-family="Times New Roman,serif" font-size="11.00">PhpInfoController</text>
</g>
<!-- \\Acme\\GeekShareBundle\\Controller\\PhpInfoController&#45;&gt;\\Symfony\\Bundle\\FrameworkBundle\\Controller\\Controller -->
<g id="edge11" class="edge"><title>\\Acme\\GeekShareBundle\\Controller\\PhpInfoController&#45;&gt;\\Symfony\\Bundle\\FrameworkBundle\\Controller\\Controller</title>
<path fill="none" stroke="black" d="M593.647,-249.054C577.073,-253.436 558.402,-258.892 541.755,-265 451.349,-298.174 350.367,-348.375 294.651,-377.296"/>
<polygon fill="none" stroke="black" points="292.696,-374.368 285.446,-382.094 295.931,-380.575 292.696,-374.368"/>
</g>
<!-- \\Acme\\GeekShareBundle\\DependencyInjection\\Configuration -->
<g id="node12" class="node"><title>\\Acme\\GeekShareBundle\\DependencyInjection\\Configuration</title>
<polygon fill="none" stroke="black" points="679.255,-176 603.255,-176 603.255,-140 679.255,-140 679.255,-176"/>
<text text-anchor="middle" x="641.255" y="-155.2" font-family="Times New Roman,serif" font-size="11.00">Configuration</text>
</g>
<!-- \\Symfony\\Component\\Config\\Definition\\ConfigurationInterface -->
<g id="node17" class="node"><title>\\Symfony\\Component\\Config\\Definition\\ConfigurationInterface</title>
<ellipse fill="none" stroke="black" cx="250.878" cy="-158" rx="240.457" ry="18"/>
<text text-anchor="middle" x="250.878" y="-154.3" font-family="Times New Roman,serif" font-size="14.00" fill="gray">\Symfony\Component\Config\Definition\ConfigurationInterface</text>
</g>
<!-- \\Acme\\GeekShareBundle\\DependencyInjection\\Configuration&#45;&gt;\\Symfony\\Component\\Config\\Definition\\ConfigurationInterface -->
<g id="edge3" class="edge"><title>\\Acme\\GeekShareBundle\\DependencyInjection\\Configuration&#45;&gt;\\Symfony\\Component\\Config\\Definition\\ConfigurationInterface</title>
<path fill="none" stroke="black" stroke-dasharray="1,5" d="M603.016,-158C577.55,-158 541.327,-158 501.732,-158"/>
<polygon fill="none" stroke="black" points="501.597,-154.5 491.597,-158 501.597,-161.5 501.597,-154.5"/>
</g>
<!-- \\Acme\\GeekShareBundle\\DependencyInjection\\AcmeGeekShareExtension -->
<g id="node13" class="node"><title>\\Acme\\GeekShareBundle\\DependencyInjection\\AcmeGeekShareExtension</title>
<polygon fill="none" stroke="black" points="708.755,-122 573.755,-122 573.755,-86 708.755,-86 708.755,-122"/>
<text text-anchor="middle" x="641.255" y="-101.2" font-family="Times New Roman,serif" font-size="11.00">AcmeGeekShareExtension</text>
</g>
<!-- \\Symfony\\Component\\HttpKernel\\DependencyInjection\\Extension -->
<g id="node18" class="node"><title>\\Symfony\\Component\\HttpKernel\\DependencyInjection\\Extension</title>
<ellipse fill="none" stroke="black" cx="250.878" cy="-104" rx="250.756" ry="18"/>
<text text-anchor="middle" x="250.878" y="-100.3" font-family="Times New Roman,serif" font-size="14.00" fill="gray">\Symfony\Component\HttpKernel\DependencyInjection\Extension</text>
</g>
<!-- \\Acme\\GeekShareBundle\\DependencyInjection\\AcmeGeekShareExtension&#45;&gt;\\Symfony\\Component\\HttpKernel\\DependencyInjection\\Extension -->
<g id="edge7" class="edge"><title>\\Acme\\GeekShareBundle\\DependencyInjection\\AcmeGeekShareExtension&#45;&gt;\\Symfony\\Component\\HttpKernel\\DependencyInjection\\Extension</title>
<path fill="none" stroke="black" d="M573.491,-104C555.165,-104 534.129,-104 511.776,-104"/>
<polygon fill="none" stroke="black" points="511.771,-100.5 501.77,-104 511.77,-107.5 511.771,-100.5"/>
</g>
<!-- \\Acme\\GeekShareBundle\\AcmeGeekShareBundle -->
<g id="node14" class="node"><title>\\Acme\\GeekShareBundle\\AcmeGeekShareBundle</title>
<polygon fill="none" stroke="black" points="702.755,-68 579.755,-68 579.755,-32 702.755,-32 702.755,-68"/>
<text text-anchor="middle" x="641.255" y="-47.2" font-family="Times New Roman,serif" font-size="11.00">AcmeGeekShareBundle</text>
</g>
<!-- \\Symfony\\Component\\HttpKernel\\Bundle\\Bundle -->
<g id="node19" class="node"><title>\\Symfony\\Component\\HttpKernel\\Bundle\\Bundle</title>
<ellipse fill="none" stroke="black" cx="250.878" cy="-50" rx="189.267" ry="18"/>
<text text-anchor="middle" x="250.878" y="-46.3" font-family="Times New Roman,serif" font-size="14.00" fill="gray">\Symfony\Component\HttpKernel\Bundle\Bundle</text>
</g>
<!-- \\Acme\\GeekShareBundle\\AcmeGeekShareBundle&#45;&gt;\\Symfony\\Component\\HttpKernel\\Bundle\\Bundle -->
<g id="edge8" class="edge"><title>\\Acme\\GeekShareBundle\\AcmeGeekShareBundle&#45;&gt;\\Symfony\\Component\\HttpKernel\\Bundle\\Bundle</title>
<path fill="none" stroke="black" d="M579.571,-50C544.218,-50 497.422,-50 450.294,-50"/>
<polygon fill="none" stroke="black" points="450.236,-46.5001 440.236,-50 450.236,-53.5001 450.236,-46.5001"/>
</g>
</g>
</svg>
